<?xml version="1.0" encoding="UTF-8" standalone="no"?>
<!DOCTYPE svg PUBLIC "-//W3C//DTD SVG 20010904//EN"
              "http://www.w3.org/TR/2001/REC-SVG-20010904/DTD/svg10.dtd">

<svg xmlns="http://www.w3.org/2000/svg"
     width="4.56944in" height="1.69444in"
     viewBox="0 0 329 122">
  <path id="Selection #5"
        fill="#c60619" 
        d="M 14.00,86.00
           C 17.77,79.53 15.26,72.21 24.18,62.00
             27.61,58.08 32.43,53.43 37.00,50.90
             46.63,45.58 72.32,41.95 84.00,40.27
             88.81,39.58 96.85,39.02 101.00,37.64
             101.00,37.64 134.00,22.52 134.00,22.52
             163.31,12.66 197.75,12.16 228.00,17.61
             228.00,17.61 247.00,21.72 247.00,21.72
             247.00,21.72 284.00,37.78 284.00,37.78
             290.67,41.28 298.89,44.46 303.01,51.00
             306.27,56.19 309.16,67.80 308.96,74.00
             308.96,74.00 308.00,86.00 308.00,86.00
             315.20,85.40 314.92,81.33 315.00,75.00
             315.10,65.84 315.01,60.76 311.54,52.00
             307.53,41.89 302.64,41.51 294.00,37.19
             294.00,37.19 283.00,31.26 283.00,31.26
             283.00,31.26 265.00,23.43 265.00,23.43
             241.17,13.27 213.68,10.96 188.00,11.00
             176.23,11.02 156.28,13.21 145.00,16.43
             134.71,19.36 124.66,23.31 115.00,27.89
             107.19,31.58 104.37,35.31 95.00,36.70
             69.11,40.56 25.03,40.09 15.91,71.00
             14.07,77.24 14.00,79.63 14.00,86.00 Z
           " />

             <path id="Selection #5"
        fill="#777" 
        d=" M 36.00,69.00
           C 39.96,67.84 54.10,63.05 57.34,64.40
             61.89,66.30 67.42,75.96 74.00,79.00
             72.73,83.36 69.18,98.82 66.49,101.28
             63.99,103.56 51.79,106.24 48.00,107.00
             52.23,113.50 66.43,112.79 73.00,110.45
             76.35,109.26 80.26,107.03 82.91,104.67
             89.95,98.41 87.79,94.17 97.00,94.00
             97.00,94.00 235.00,94.00 235.00,94.00
             246.67,94.02 242.59,96.53 250.09,103.90
             253.20,106.95 257.87,109.51 262.00,110.90
             274.51,115.08 291.55,109.49 297.00,97.00
             292.11,97.41 278.89,101.70 276.00,100.68
             272.43,99.41 261.22,87.78 260.60,84.00
             260.16,81.29 262.07,75.79 262.86,73.00
             263.59,70.41 264.64,65.54 266.56,63.72
             268.83,61.58 282.90,58.51 287.00,57.00
             277.16,49.22 261.52,50.89 252.04,58.53
             244.01,65.00 246.63,69.82 237.00,70.00
             237.00,70.00 99.00,70.00 99.00,70.00
             86.75,69.98 91.13,66.71 81.83,58.90
             75.79,53.82 68.83,51.72 61.00,52.04
             50.47,52.46 39.33,58.60 36.00,69.00 Z" />
</svg>


